<?xml version="1.0" encoding="UTF-8"?>
<!DOCTYPE svg PUBLIC "-//W3C//DTD SVG 1.1//EN" "http://www.w3.org/Graphics/SVG/1.1/DTD/svg11.dtd">
<svg xmlns="http://www.w3.org/2000/svg" version="1.1" width="263px" height="248px" style="shape-rendering:geometricPrecision; text-rendering:geometricPrecision; image-rendering:optimizeQuality; fill-rule:evenodd; clip-rule:evenodd" xmlns:xlink="http://www.w3.org/1999/xlink">
<g><path style="opacity:0.886" fill="#0f3360" d="M 4.5,-0.5 C 83.5,-0.5 162.5,-0.5 241.5,-0.5C 241.5,24.5 241.5,49.5 241.5,74.5C 238.5,74.5 235.5,74.5 232.5,74.5C 232.5,52.5 232.5,30.5 232.5,8.5C 159.5,8.5 86.5,8.5 13.5,8.5C 13.5,30.5 13.5,52.5 13.5,74.5C 10.5,74.5 7.5,74.5 4.5,74.5C 4.5,49.5 4.5,24.5 4.5,-0.5 Z"/></g>
<g><path style="opacity:0.943" fill="#fd5e44" d="M 262.5,162.5 C 262.5,162.833 262.5,163.167 262.5,163.5C 255.492,163.666 248.492,163.5 241.5,163C 237.815,153.126 233.981,143.293 230,133.5C 225.263,132.531 220.43,132.197 215.5,132.5C 215.5,142.833 215.5,153.167 215.5,163.5C 208.833,163.5 202.167,163.5 195.5,163.5C 195.5,136.167 195.5,108.833 195.5,81.5C 211.206,81.1176 226.872,81.6176 242.5,83C 257.423,87.6571 263.59,97.8238 261,113.5C 259.394,120.769 255.227,125.935 248.5,129C 253.348,140.183 258.015,151.35 262.5,162.5 Z M 215.5,98.5 C 221.842,98.3338 228.175,98.5005 234.5,99C 240.851,101.201 242.685,105.368 240,111.5C 238.681,113.487 236.848,114.654 234.5,115C 228.175,115.5 221.842,115.666 215.5,115.5C 215.5,109.833 215.5,104.167 215.5,98.5 Z"/></g>
<g><path style="opacity:0.937" fill="#71a5cb" d="M 175.5,85.5 C 177.446,90.3958 178.113,95.7291 177.5,101.5C 181.5,101.5 185.5,101.5 189.5,101.5C 189.5,106.833 189.5,112.167 189.5,117.5C 185.5,117.5 181.5,117.5 177.5,117.5C 177.08,127.247 177.58,136.914 179,146.5C 180.785,147.24 182.618,147.907 184.5,148.5C 186.409,147.652 188.409,147.318 190.5,147.5C 190.5,152.833 190.5,158.167 190.5,163.5C 184.189,164.427 177.856,164.594 171.5,164C 164.318,161.819 160.485,156.985 160,149.5C 159.5,138.839 159.333,128.172 159.5,117.5C 157.167,117.5 154.833,117.5 152.5,117.5C 152.5,112.167 152.5,106.833 152.5,101.5C 155.167,101.5 157.833,101.5 160.5,101.5C 161.229,96.8696 161.563,92.2029 161.5,87.5C 166.324,87.0076 170.99,86.341 175.5,85.5 Z"/></g>
<g><path style="opacity:0.946" fill="#71a5cb" d="M -0.5,163.5 C -0.5,142.833 -0.5,122.167 -0.5,101.5C 5.5,101.5 11.5,101.5 17.5,101.5C 17.3398,103.199 17.5065,104.866 18,106.5C 24.1394,100.936 31.306,99.1029 39.5,101C 44.1849,102.35 47.6849,105.183 50,109.5C 59.0894,99.8525 69.5894,98.0192 81.5,104C 85.381,106.928 87.881,110.761 89,115.5C 89.4999,131.497 89.6666,147.497 89.5,163.5C 83.1667,163.5 76.8333,163.5 70.5,163.5C 70.6666,149.829 70.4999,136.163 70,122.5C 66.8328,117.002 62.6661,116.168 57.5,120C 56.5399,121.419 55.7065,122.919 55,124.5C 54.5001,137.496 54.3334,150.496 54.5,163.5C 47.8333,163.5 41.1667,163.5 34.5,163.5C 34.6666,149.496 34.4999,135.496 34,121.5C 31.4693,117.21 27.9693,116.377 23.5,119C 21.1064,120.952 19.6064,123.452 19,126.5C 18.5001,138.829 18.3335,151.162 18.5,163.5C 12.1667,163.5 5.83333,163.5 -0.5,163.5 Z"/></g>
<g><path style="opacity:0.942" fill="#71a5cb" d="M 118.5,100.5 C 135.57,98.2768 146.737,105.277 152,121.5C 152.977,126.793 153.477,132.126 153.5,137.5C 140.5,137.5 127.5,137.5 114.5,137.5C 116.21,148.018 121.876,151.185 131.5,147C 133.161,144.147 135.161,141.647 137.5,139.5C 142.455,140.541 147.455,141.208 152.5,141.5C 150.967,153.535 144.3,161.035 132.5,164C 112.974,167.333 100.808,159.499 96,140.5C 92.5256,120.576 100.026,107.243 118.5,100.5 Z M 120.5,115.5 C 127.439,114.129 131.773,116.796 133.5,123.5C 127.5,123.5 121.5,123.5 115.5,123.5C 116.151,120.197 117.818,117.53 120.5,115.5 Z"/></g>
<g><path style="opacity:0.955" fill="#0f3360" d="M 4.5,172.5 C 7.5,172.5 10.5,172.5 13.5,172.5C 13.5,194.5 13.5,216.5 13.5,238.5C 86.5,238.5 159.5,238.5 232.5,238.5C 232.5,216.5 232.5,194.5 232.5,172.5C 235.5,172.5 238.5,172.5 241.5,172.5C 241.5,197.167 241.5,221.833 241.5,246.5C 162.5,246.5 83.5,246.5 4.5,246.5C 4.5,221.833 4.5,197.167 4.5,172.5 Z"/></g>
</svg>
